<svg width="40" height="22" viewBox="0 0 40 22" fill="none" xmlns="http://www.w3.org/2000/svg">
<g clip-path="url(#clip0_201_2)">
<path d="M17.4284 15.7093L10.6654 3.50062C10.2468 2.75249 9.63884 2.12762 8.90246 1.6887C8.16608 1.24979 7.32721 1.01228 6.47003 1.00001H2.35189C2.29042 0.996557 2.22921 1.01037 2.17517 1.03988C2.12114 1.0694 2.07644 1.11343 2.04612 1.16702C2.0158 1.22061 2.00107 1.28161 2.00361 1.34313C2.00614 1.40464 2.02583 1.46423 2.06044 1.51514L11.2483 18.1356C11.6522 18.8953 12.2564 19.53 12.9953 19.9708C13.7342 20.4116 14.5797 20.6417 15.44 20.6362H20.1469L19.4853 19.4595L20.1469 20.6362H23.5328C23.6648 20.643 23.7961 20.6137 23.9127 20.5515C24.0293 20.4894 24.1268 20.3966 24.1948 20.2833C24.2628 20.17 24.2986 20.0403 24.2985 19.9081C24.2985 19.776 24.2625 19.6464 24.1944 19.5331C22.8309 19.5421 21.4888 19.1938 20.3018 18.5229C19.1147 17.8521 18.1241 16.882 17.4284 15.7093V15.7093Z" fill="url(#paint0_linear_201_2)"/>
<path d="M31.5491 15.7093L24.7831 3.50061C24.3719 2.74684 23.766 2.11721 23.0286 1.67737C22.2912 1.23753 21.4493 1.00361 20.5907 1H16.4725C16.4111 0.996549 16.3498 1.01036 16.2958 1.03987C16.2418 1.06939 16.1971 1.11343 16.1668 1.16701C16.1364 1.2206 16.1217 1.2816 16.1242 1.34312C16.1268 1.40463 16.1465 1.46422 16.1811 1.51513L25.3711 18.1356C25.775 18.8953 26.3792 19.53 27.1181 19.9708C27.857 20.4116 28.7025 20.6417 29.5629 20.6362H37.7234C37.8553 20.643 37.9867 20.6137 38.1033 20.5515C38.2199 20.4893 38.3174 20.3966 38.3854 20.2833C38.4533 20.17 38.4892 20.0403 38.4891 19.9081C38.4891 19.776 38.453 19.6464 38.3849 19.5331C37.0149 19.5269 35.6689 19.1728 34.4732 18.504C33.2775 17.8351 32.2713 16.8735 31.5491 15.7093V15.7093Z" fill="url(#paint1_linear_201_2)"/>
<path d="M32.2106 5.26605C32.4494 5.99276 32.9401 6.61015 33.5942 7.00674C34.2482 7.40334 35.0226 7.553 35.7773 7.4287C36.5321 7.30441 37.2175 6.91434 37.7099 6.32895C38.2022 5.74355 38.469 5.0014 38.4622 4.23652C38.4547 3.38056 38.1115 2.56175 37.5063 1.95641C36.9011 1.35106 36.0823 1.00761 35.2264 1H29.122C29.0201 1.00758 28.9212 1.03834 28.833 1.08994C28.7448 1.14153 28.6695 1.2126 28.6129 1.29772C28.5564 1.38284 28.52 1.47975 28.5065 1.58107C28.4931 1.68239 28.503 1.78544 28.5355 1.88235C31.0339 1.95595 32.2106 5.26605 32.2106 5.26605Z" fill="url(#paint2_linear_201_2)"/>
</g>
<defs>
<linearGradient id="paint0_linear_201_2" x1="41.5996" y1="-6.30573" x2="-9.18708" y2="31.6607" gradientUnits="userSpaceOnUse">
<stop stop-color="#F7931E"/>
<stop offset="0.999" stop-color="#E3083B"/>
</linearGradient>
<linearGradient id="paint1_linear_201_2" x1="45.154" y1="-0.178779" x2="-5.49095" y2="37.9468" gradientUnits="userSpaceOnUse">
<stop stop-color="#F7931E"/>
<stop offset="0.999" stop-color="#E3083B"/>
</linearGradient>
<linearGradient id="paint2_linear_201_2" x1="50.5656" y1="9.17328" x2="16.2247" y2="56.3793" gradientUnits="userSpaceOnUse">
<stop stop-color="#F7931E"/>
<stop offset="0.999" stop-color="#E3083B"/>
</linearGradient>
<clipPath id="clip0_201_2">
<rect width="36.492" height="19.6362" fill="white" transform="translate(2 1)"/>
</clipPath>
</defs>
</svg>
