<svg xmlns="http://www.w3.org/2000/svg" xmlns:xlink="http://www.w3.org/1999/xlink" width="298.478" height="27.7" viewBox="0 0 298.478 27.7">
  <defs>
    <linearGradient id="linear-gradient" x1="1.793" y1="1.386" x2="-0.719" y2="-0.208" gradientUnits="objectBoundingBox">
      <stop offset="0" stop-color="#f7931e"/>
      <stop offset="0.999" stop-color="#e3083b"/>
    </linearGradient>
    <linearGradient id="linear-gradient-2" x1="1.307" y1="1.081" x2="-1.197" y2="-0.514" xlink:href="#linear-gradient"/>
    <linearGradient id="linear-gradient-3" x1="2.227" y1="1.836" x2="-3.37" y2="-2.998" xlink:href="#linear-gradient"/>
  </defs>
  <g id="Group_3536" data-name="Group 3536" transform="translate(-150 -398)">
    <g id="Group_1" data-name="Group 1" transform="translate(149.678 397.6)">
      <path id="Path_1" data-name="Path 1" d="M21.3,21.2,12.1,3.9A6.427,6.427,0,0,0,6.4.4H.8a.449.449,0,0,0-.4.7L12.9,24.6a6.427,6.427,0,0,0,5.7,3.5H25l-.9-1.6.9,1.6h4.6a1.069,1.069,0,0,0,.9-1.6A10.442,10.442,0,0,1,21.3,21.2Z" fill="url(#linear-gradient)"/>
      <path id="Path_2" data-name="Path 2" d="M40.6,21.2,31.4,3.9A6.427,6.427,0,0,0,25.7.4H20.1a.449.449,0,0,0-.4.7L32.2,24.6a6.427,6.427,0,0,0,5.7,3.5h6.5l-.9-1.6.9,1.6H49a1.069,1.069,0,0,0,.9-1.6A10.5,10.5,0,0,1,40.6,21.2Z" fill="url(#linear-gradient-2)"/>
      <path id="Path_3" data-name="Path 3" d="M41.4,6.5h0a4.383,4.383,0,0,0,4.1,3.1A4.633,4.633,0,0,0,50,5,4.461,4.461,0,0,0,45.6.5H37.3a.966.966,0,0,0-.8,1.3C39.8,1.7,41.4,6.5,41.4,6.5Z" fill="url(#linear-gradient-3)"/>
    </g>
    <g id="Group_2" data-name="Group 2" transform="translate(149.678 395.9)">
      <path id="Path_4" data-name="Path 4" d="M80.8,7.2h-.5a.265.265,0,0,0-.3.3L76.9,22.2,71.6,7.6a.664.664,0,0,0-.5-.4.51.51,0,0,0-.5.4L65.4,22.1,62.3,7.6V7.4a.319.319,0,0,0-.3-.3h-.5a.354.354,0,0,0-.4.4v.3h0l3.5,16.4a.821.821,0,0,0,.5.5h0c.2,0,.5-.2.5-.4L71,9.4l5.4,14.9a.675.675,0,0,0,.6.4.472.472,0,0,0,.5-.5L81,7.9V7.6a.367.367,0,0,0-.1-.3C80.9,7.2,80.9,7.2,80.8,7.2Z" fill="#fff"/>
      <path id="Path_5" data-name="Path 5" d="M99.7,7.2h-.5a.319.319,0,0,0-.3.3v7.9H88.4V7.5a.265.265,0,0,0-.3-.3h-.5a.319.319,0,0,0-.3.3V24.4a.265.265,0,0,0,.3.3h.5a.319.319,0,0,0,.3-.3V16.5H98.8v7.9a.265.265,0,0,0,.3.3h.5a.319.319,0,0,0,.3-.3V7.5C100,7.3,99.8,7.2,99.7,7.2Z" fill="#fff"/>
      <path id="Path_6" data-name="Path 6" d="M109.3,7.2h-.5a.319.319,0,0,0-.3.3V24.4a.265.265,0,0,0,.3.3h.5a.319.319,0,0,0,.3-.3V7.5A.319.319,0,0,0,109.3,7.2Z" fill="#fff"/>
      <path id="Path_7" data-name="Path 7" d="M128,23.6H117.8l10-15.5a.638.638,0,0,0,0-.6.55.55,0,0,0-.5-.3H116.9a.319.319,0,0,0-.3.3V8a.265.265,0,0,0,.3.3h9.3l-10,15.5a.638.638,0,0,0,0,.6.55.55,0,0,0,.5.3H128a.319.319,0,0,0,.3-.3V24A.446.446,0,0,0,128,23.6Z" fill="#fff"/>
      <path id="Path_8" data-name="Path 8" d="M144.5,23.6h-8.8V7.5a.265.265,0,0,0-.3-.3h-.5a.319.319,0,0,0-.3.3V24.2a.576.576,0,0,0,.6.6h9.4a.319.319,0,0,0,.3-.3V24C144.8,23.8,144.7,23.6,144.5,23.6Z" fill="#fff"/>
      <path id="Path_9" data-name="Path 9" d="M157.2,7.5c-.2-.4-.9-.4-1,0l-7,16.4-.1.3v.3c.1.1.2.2.3.2h.5c.1,0,.3-.1.3-.2l6.5-15.3,6.4,15.2v.1c0,.1.2.2.3.2h.5c.1,0,.2-.1.3-.2a.187.187,0,0,0,0-.3Z" fill="#fff"/>
      <path id="Path_10" data-name="Path 10" d="M180,15.7a4.5,4.5,0,0,0,2.1-3.7,4.788,4.788,0,0,0-4.9-4.6h-5.7a.645.645,0,0,0-.6.6V23.9a.576.576,0,0,0,.6.6h6.8a4.788,4.788,0,0,0,4.9-4.6A5.155,5.155,0,0,0,180,15.7Zm-2.9-7.1a3.6,3.6,0,0,1,3.8,3.4,3.6,3.6,0,0,1-3.8,3.4h-5.2V8.6h5.2Zm1,8a3.51,3.51,0,0,1,3.7,3.4,3.572,3.572,0,0,1-3.7,3.4h-6.2V16.6h6.2Z" fill="#fff"/>
      <path id="Path_11" data-name="Path 11" d="M195,15.4c-2.5-1-4.8-1.9-4.8-3.5,0-1.9,2-3.5,4.5-3.5s4.5,1.6,4.5,3.5v.2a.265.265,0,0,0,.3.3h.5a.319.319,0,0,0,.3-.3v-.2c0-2.6-2.5-4.7-5.6-4.7s-5.6,2.1-5.6,4.7c0,2.5,2.9,3.6,5.7,4.7,2.5,1,4.8,1.9,4.8,3.5,0,1.9-2.3,3.5-5,3.5s-5-1.6-5-3.5v-.2a.265.265,0,0,0-.3-.3h-.5a.319.319,0,0,0-.3.3v.2c0,2.6,2.7,4.7,6.1,4.7,3.3,0,6.1-2.2,6.1-4.7C200.8,17.6,197.8,16.5,195,15.4Z" fill="#fff"/>
    </g>
    <g id="Group_3" data-name="Group 3" transform="translate(149.678 395.6)">
      <path id="Path_12" data-name="Path 12" d="M211.9,7.7a20.15,20.15,0,0,1,3.8-.3,7.109,7.109,0,0,1,4.5,1.2,3.557,3.557,0,0,1,1.3,3,4.024,4.024,0,0,1-2.7,3.7h0a4.273,4.273,0,0,1,3.3,4.2,5.015,5.015,0,0,1-1.4,3.4c-1.1,1.1-3,1.6-5.6,1.6a25.023,25.023,0,0,1-3.3-.2V7.7Zm2.1,6.8h1.9c2.2,0,3.5-1.2,3.5-2.8,0-2-1.4-2.7-3.6-2.7-1,0-1.5.1-1.9.1v5.4Zm0,8.1a8.663,8.663,0,0,0,1.8.1c2.2,0,4.2-.8,4.2-3.3,0-2.3-1.9-3.2-4.2-3.2H214Z" fill="#fff"/>
      <path id="Path_13" data-name="Path 13" d="M235.2,20.9c0,1.2,0,2.3.1,3.3h-1.9l-.1-2h0a4.391,4.391,0,0,1-3.9,2.2c-1.8,0-4-1-4-5.3V12h2.1v6.7c0,2.3.7,3.8,2.6,3.8a3.085,3.085,0,0,0,2.8-2,3.6,3.6,0,0,0,.2-1.1V12h2.1v8.9Z" fill="#fff"/>
      <path id="Path_14" data-name="Path 14" d="M238.9,22a5.459,5.459,0,0,0,2.8.9c1.5,0,2.3-.8,2.3-1.8s-.6-1.6-2.2-2.2c-2.1-.8-3.1-2-3.1-3.4,0-1.9,1.5-3.5,4-3.5a5.9,5.9,0,0,1,2.9.7l-.5,1.6a4.558,4.558,0,0,0-2.4-.7c-1.3,0-2,.7-2,1.6,0,1,.7,1.4,2.2,2,2,.8,3.1,1.8,3.1,3.6,0,2.1-1.6,3.6-4.4,3.6a6.439,6.439,0,0,1-3.3-.8Z" fill="#fff"/>
      <path id="Path_15" data-name="Path 15" d="M251.6,8.8a1.261,1.261,0,0,1-1.3,1.3A1.324,1.324,0,0,1,249,8.8a1.347,1.347,0,0,1,1.3-1.4A1.288,1.288,0,0,1,251.6,8.8Zm-2.3,15.4v-12h2.1V24.3h-2.1Z" fill="#fff"/>
      <path id="Path_16" data-name="Path 16" d="M255.4,15.4c0-1.2,0-2.3-.1-3.3h1.9l.1,2h0a4.39,4.39,0,0,1,3.9-2.3c1.6,0,4.1,1,4.1,5.1v7.2h-2.1v-7c0-1.9-.7-3.6-2.7-3.6a2.907,2.907,0,0,0-2.8,2.2,3.083,3.083,0,0,0-.1,1V24h-2.1V15.4Z" fill="#fff"/>
      <path id="Path_17" data-name="Path 17" d="M270.5,18.6c0,3,1.9,4.2,4,4.2a8.242,8.242,0,0,0,3.2-.6l.4,1.6a9.95,9.95,0,0,1-3.9.7c-3.6,0-5.7-2.4-5.7-6.1,0-3.6,2.1-6.5,5.5-6.5,3.8,0,4.8,3.5,4.8,5.7a2.787,2.787,0,0,1-.1,1h-8.2Zm6.2-1.6c0-1.4-.6-3.6-2.9-3.6-2.1,0-3.1,2-3.3,3.6Z" fill="#fff"/>
      <path id="Path_18" data-name="Path 18" d="M281.6,22a5.459,5.459,0,0,0,2.8.9c1.5,0,2.3-.8,2.3-1.8s-.6-1.6-2.2-2.2c-2.1-.8-3.1-2-3.1-3.4,0-1.9,1.5-3.5,4-3.5a5.9,5.9,0,0,1,2.9.7l-.5,1.6a4.558,4.558,0,0,0-2.4-.7c-1.3,0-2,.7-2,1.6,0,1,.7,1.4,2.2,2,2,.8,3.1,1.8,3.1,3.6,0,2.1-1.6,3.6-4.4,3.6a6.439,6.439,0,0,1-3.3-.8Z" fill="#fff"/>
      <path id="Path_19" data-name="Path 19" d="M291.7,22a5.459,5.459,0,0,0,2.8.9c1.5,0,2.3-.8,2.3-1.8s-.6-1.6-2.2-2.2c-2.1-.8-3.1-2-3.1-3.4,0-1.9,1.5-3.5,4-3.5a5.9,5.9,0,0,1,2.9.7l-.5,1.6a4.558,4.558,0,0,0-2.4-.7c-1.3,0-2,.7-2,1.6,0,1,.7,1.4,2.2,2,2,.8,3.1,1.8,3.1,3.6,0,2.1-1.6,3.6-4.4,3.6a6.439,6.439,0,0,1-3.3-.8Z" fill="#fff"/>
    </g>
  </g>
</svg>
